<svg version="1.1" id="Camada_1" xmlns="http://www.w3.org/2000/svg" xmlns:xlink="http://www.w3.org/1999/xlink" x="0px" y="0px" viewBox="80 100 530 170" xml:space="preserve" class="text-gray-600 dark:text-white h-10 h-6">
<g>
	<path class="fill-current" d="M80.48,132.28c0-0.61,0.19-1.13,0.58-1.57c0.39-0.44,0.94-0.66,1.65-0.66h14.98c0.51,0,1.04,0.2,1.59,0.61
		c0.56,0.4,0.83,0.95,0.83,1.62v27.66c3.69-4.74,7.31-9.41,10.86-14.01c3.55-4.6,7.16-9.27,10.81-14.01
		c0.37-0.57,0.85-1.04,1.45-1.39c0.59-0.36,1.18-0.53,1.75-0.53h19.28c0.81,0,1.22,0.25,1.22,0.76c0,0.34-0.19,0.75-0.56,1.22
		l-23.9,31.52l26.44,39.79c0.37,0.58,0.56,1.03,0.56,1.37c0,0.51-0.37,0.76-1.12,0.76h-19.18c-0.58,0-1.14-0.17-1.7-0.51
		c-0.56-0.34-1.02-0.79-1.4-1.37c-1.79-2.43-3.43-4.77-4.9-7c-1.47-2.23-2.9-4.46-4.29-6.67c-1.39-2.22-2.79-4.46-4.21-6.72
		c-1.42-2.27-2.98-4.65-4.67-7.16l-6.45,7.41v19.79c0,1.49-0.81,2.23-2.43,2.23H82.76c-1.52,0-2.28-0.74-2.28-2.23V132.28z"></path>
    <path class="fill-current" d="M199.1,197.7c-2.98,2.74-6.33,4.88-10.05,6.42c-3.72,1.54-7.66,2.31-11.83,2.31c-4.64,0-9.02-0.85-13.14-2.54
		c-4.13-1.69-7.75-4.03-10.86-7.03c-3.11-2.99-5.58-6.52-7.41-10.58c-1.83-4.06-2.74-8.48-2.74-13.25c0-2.98,0.36-5.86,1.09-8.65
		c0.73-2.79,1.76-5.4,3.1-7.84c1.34-2.44,2.96-4.68,4.87-6.73c1.91-2.05,4.05-3.8,6.42-5.25c2.37-1.46,4.94-2.59,7.71-3.4
		c2.78-0.81,5.7-1.22,8.78-1.22c2.81,0,5.53,0.37,8.17,1.11c2.64,0.75,5.12,1.79,7.44,3.15c2.32,1.35,4.44,2.98,6.37,4.87
		s3.59,3.97,4.97,6.22c1.39,2.25,2.46,4.65,3.22,7.21c0.76,2.55,1.14,5.18,1.14,7.89c0,1.76-0.02,3.2-0.07,4.31
		c-0.05,1.12-0.31,2-0.79,2.66c-0.47,0.66-1.26,1.12-2.36,1.37c-1.1,0.25-2.72,0.38-4.85,0.38h-36.54c0.34,2.17,1.02,3.98,2.06,5.43
		c1.03,1.46,2.22,2.61,3.58,3.48c1.35,0.86,2.79,1.48,4.31,1.85c1.52,0.37,2.96,0.56,4.31,0.56c1.22,0,2.47-0.13,3.76-0.38
		c1.28-0.26,2.53-0.59,3.73-1.01c1.2-0.42,2.3-0.91,3.3-1.47c1-0.56,1.8-1.14,2.41-1.75c0.54-0.44,1.01-0.77,1.4-0.99
		c0.39-0.22,0.8-0.33,1.24-0.33c0.44,0,0.89,0.15,1.34,0.45c0.46,0.3,0.97,0.75,1.55,1.32l5.38,6.09c0.37,0.44,0.61,0.84,0.71,1.19
		c0.1,0.36,0.15,0.72,0.15,1.09c0,0.68-0.19,1.26-0.56,1.75C200.04,196.9,199.6,197.33,199.1,197.7 M174.69,155.43
		c-1.32,0-2.6,0.26-3.83,0.79c-1.23,0.52-2.39,1.23-3.48,2.1c-1.08,0.88-2.05,1.88-2.92,2.99c-0.86,1.12-1.57,2.25-2.11,3.4h25.93
		c-0.71-1.32-1.48-2.54-2.31-3.65c-0.83-1.12-1.78-2.1-2.84-2.94c-1.07-0.84-2.28-1.51-3.65-1.98S176.51,155.43,174.69,155.43"></path>
    <path class="fill-current" d="M267.12,197.7c-2.98,2.74-6.33,4.88-10.05,6.42c-3.72,1.54-7.66,2.31-11.83,2.31c-4.64,0-9.02-0.85-13.14-2.54
		c-4.13-1.69-7.75-4.03-10.86-7.03c-3.11-2.99-5.58-6.52-7.41-10.58c-1.83-4.06-2.74-8.48-2.74-13.25c0-2.98,0.36-5.86,1.09-8.65
		c0.73-2.79,1.76-5.4,3.1-7.84c1.34-2.44,2.96-4.68,4.87-6.73c1.91-2.05,4.05-3.8,6.42-5.25c2.37-1.46,4.94-2.59,7.71-3.4
		c2.77-0.81,5.7-1.22,8.78-1.22c2.81,0,5.53,0.37,8.17,1.11c2.64,0.75,5.12,1.79,7.43,3.15c2.32,1.35,4.44,2.98,6.37,4.87
		c1.93,1.9,3.59,3.97,4.98,6.22c1.39,2.25,2.46,4.65,3.22,7.21c0.76,2.55,1.14,5.18,1.14,7.89c0,1.76-0.02,3.2-0.07,4.31
		c-0.05,1.12-0.32,2-0.79,2.66c-0.47,0.66-1.26,1.12-2.36,1.37c-1.1,0.25-2.71,0.38-4.85,0.38h-36.54c0.34,2.17,1.02,3.98,2.05,5.43
		c1.03,1.46,2.22,2.61,3.58,3.48c1.35,0.86,2.79,1.48,4.31,1.85c1.52,0.37,2.96,0.56,4.31,0.56c1.22,0,2.47-0.13,3.76-0.38
		c1.28-0.26,2.53-0.59,3.73-1.01c1.2-0.42,2.3-0.91,3.3-1.47c1-0.56,1.8-1.14,2.41-1.75c0.54-0.44,1.01-0.77,1.4-0.99
		c0.39-0.22,0.8-0.33,1.24-0.33c0.44,0,0.89,0.15,1.34,0.45c0.45,0.3,0.97,0.75,1.55,1.32l5.38,6.09c0.37,0.44,0.61,0.84,0.71,1.19
		c0.1,0.36,0.15,0.72,0.15,1.09c0,0.68-0.19,1.26-0.56,1.75C268.06,196.9,267.62,197.33,267.12,197.7 M242.71,155.43
		c-1.32,0-2.6,0.26-3.83,0.79c-1.23,0.52-2.39,1.23-3.48,2.1c-1.08,0.88-2.06,1.88-2.92,2.99c-0.86,1.12-1.56,2.25-2.11,3.4h25.94
		c-0.71-1.32-1.48-2.54-2.31-3.65c-0.83-1.12-1.78-2.1-2.84-2.94c-1.07-0.84-2.28-1.51-3.65-1.98
		C246.13,155.66,244.53,155.43,242.71,155.43"></path>
    <path class="fill-current" d="M281.22,141.57c0.44-0.37,0.9-0.61,1.37-0.71c0.47-0.1,0.93-0.15,1.37-0.15h7.66c0.64,0,1.18,0.1,1.6,0.3
		c0.42,0.2,0.77,0.48,1.04,0.84c0.27,0.35,0.5,0.76,0.68,1.22c0.19,0.46,0.36,0.96,0.53,1.5c0.47,1.49,1.03,2.96,1.55,4.44
		c0.11,0.32,0.19,1.32,0.56,1.46c0.64,0.23,1.13-1.02,1.36-1.39c0.42-0.7,0.89-1.37,1.4-2c1-1.25,2.16-2.37,3.43-3.34
		c6.6-5.03,15.16-4.68,22.64-1.9c0.08,0.03,0.15,0.06,0.23,0.09c0.43,0.16,0.86,0.34,1.28,0.52c0.07,0.03,0.14,0.06,0.21,0.09
		c3.91,1.71,7.27,4.06,10.1,7.05c2.82,2.99,5.03,6.51,6.62,10.56c1.59,4.04,2.38,8.42,2.38,13.12c0,4.67-0.8,9.03-2.38,13.09
		c-1.59,4.06-3.8,7.59-6.62,10.58c-9.23,9.78-26.2,13.61-36.64,3.57c-0.83-0.79-1.59-1.65-2.3-2.55c0.28,0.36,0.04,2.05,0.04,2.54
		v2.87v7.22v10.8v0.18c0,1.01-0.3,1.88-0.91,2.59c-0.61,0.71-1.56,1.06-2.84,1.06h-11.62c-0.41,0-0.85-0.08-1.32-0.25
		c-0.47-0.17-0.91-0.41-1.32-0.71c-0.4-0.3-0.74-0.68-1.01-1.14c-0.27-0.46-0.41-0.97-0.41-1.55v-77.09c0-0.68,0.13-1.23,0.38-1.67
		C280.54,142.35,280.85,141.94,281.22,141.57 M330.01,173.24c0-2.16-0.36-4.22-1.07-6.17s-1.71-3.65-3-5.1
		c-1.29-1.46-2.83-2.61-4.63-3.45c-1.8-0.85-3.78-1.27-5.96-1.27c-2.14,0-4.17,0.4-6.08,1.19c-1.92,0.8-3.6,1.88-5.04,3.25
		c-1.44,1.37-2.61,2.99-3.51,4.85c-0.9,1.86-1.4,3.84-1.5,5.94v0.76c0,2.23,0.42,4.33,1.27,6.29c0.85,1.96,2,3.66,3.46,5.1
		c1.46,1.44,3.17,2.58,5.14,3.43c1.97,0.85,4.06,1.27,6.26,1.27c2.17,0,4.16-0.42,5.96-1.27c1.8-0.84,3.34-1.99,4.63-3.43
		c1.29-1.44,2.29-3.14,3-5.1C329.66,177.57,330.01,175.47,330.01,173.24"></path>
    <path class="fill-current" d="M441.78,213.93c-15.37,0-30.74,0.05-46.1-0.01c-17.44-0.07-32.17-10.21-38.58-26.45
		c-6.2-15.7-2.29-33.81,10.23-45.44c7.81-7.26,17.1-11.25,28.02-11.21c10.73,0.05,21.47-0.64,32.19-0.3
		c8.7,0.27,17.39,0.12,26.07,0.08c11.05-0.05,22.11,0.25,33.18,0.06c16.07-0.28,29.06,6.67,37.08,20.85
		c14.47,25.6,0.51,55.74-28.27,61.88c-2.56,0.55-5.13,0.53-7.7,0.53C472.51,213.94,457.15,213.93,441.78,213.93 M520.75,172.39
		c0.01-19.27-14.51-33.76-33.84-33.76c-18.84-0.01-33.67,14.86-33.68,33.75c-0.01,18.88,14.82,33.75,33.66,33.78
		C506.17,206.18,520.74,191.65,520.75,172.39"></path>
    <path class="fill-current" d="M535.82,144.26c0.4-0.34,0.82-0.55,1.27-0.65c0.45-0.09,0.87-0.14,1.27-0.14h6.98c0.55,0,1.03,0.1,1.43,0.3
		c0.4,0.2,0.74,0.47,1.02,0.81c0.28,0.34,0.5,0.72,0.67,1.15c0.17,0.43,0.33,0.88,0.49,1.34l0.97,4.06
		c0.46-0.95,1.21-1.94,2.24-2.95c1.03-1.01,2.31-1.94,3.84-2.76c1.52-0.83,3.29-1.51,5.29-2.05c2-0.54,4.24-0.81,6.7-0.81
		c3.51,0,6.65,0.68,9.4,2.03c2.76,1.35,5.1,3.2,7.02,5.53c1.92,2.33,3.39,5.06,4.39,8.19c1,3.12,1.5,6.45,1.5,10v30.27
		c0,1.17-0.26,2.06-0.76,2.66c-0.51,0.6-1.32,0.9-2.42,0.9h-10.68c-1.32,0-2.23-0.22-2.73-0.67c-0.49-0.45-0.74-1.32-0.74-2.61
		v-30.09c0-1.32-0.3-2.58-0.9-3.76c-0.6-1.19-1.39-2.23-2.38-3.14c-0.99-0.91-2.1-1.62-3.35-2.15c-1.25-0.52-2.52-0.79-3.81-0.79
		c-1.11,0-2.24,0.25-3.4,0.74c-1.15,0.49-2.22,1.18-3.19,2.06c-0.97,0.88-1.79,1.91-2.45,3.1c-0.66,1.19-1.04,2.47-1.13,3.86v30.04
		c0,0.52-0.1,1.05-0.3,1.57c-0.2,0.52-0.5,0.92-0.9,1.2c-0.4,0.25-0.78,0.42-1.13,0.51c-0.36,0.09-0.76,0.14-1.23,0.14h-10.44
		c-1.32,0-2.28-0.32-2.87-0.97c-0.59-0.65-0.88-1.51-0.88-2.59v-51.68c0-0.58,0.13-1.12,0.39-1.61c0.26-0.49,0.62-0.88,1.09-1.15
		L535.82,144.26z"></path>
    <path style="fill:rgb(142, 184, 68)" d="M520.75,172.18c0.01-19.27-14.51-33.76-33.84-33.76c-18.84-0.01-33.67,14.86-33.68,33.75
		c-0.01,18.88,14.82,33.75,33.66,33.78C506.17,205.97,520.74,191.44,520.75,172.18"></path>
    <path class="fill-current" d="M313.58,226.7h6.66c1.45,0,2.64,0.22,3.56,0.68c0.92,0.45,1.65,1.01,2.19,1.66c0.54,0.66,0.91,1.37,1.12,2.12
		c0.21,0.75,0.31,1.45,0.31,2.07c0,1.17-0.21,2.18-0.62,3.02c-0.42,0.84-0.95,1.52-1.62,2.06c-0.66,0.53-1.41,0.93-2.24,1.18
		c-0.83,0.25-1.65,0.38-2.46,0.38h-3.14v7.79h-3.77V226.7z M320.17,236.53c1,0,1.79-0.29,2.38-0.88c0.59-0.59,0.89-1.35,0.89-2.29
		c0-0.98-0.31-1.79-0.93-2.4c-0.62-0.62-1.4-0.93-2.33-0.93h-2.83v6.5H320.17z"></path>
    <path class="fill-current" d="M340.92,248.22c-1.51,0-2.92-0.29-4.23-0.86c-1.31-0.58-2.45-1.37-3.42-2.37c-0.98-1.01-1.74-2.18-2.3-3.52
		c-0.56-1.34-0.84-2.78-0.84-4.31s0.28-2.96,0.84-4.31c0.56-1.34,1.32-2.51,2.29-3.5c0.96-0.99,2.1-1.78,3.42-2.36
		c1.32-0.58,2.73-0.86,4.25-0.86c1.51,0,2.92,0.29,4.23,0.86c1.31,0.58,2.45,1.36,3.42,2.36c0.97,1,1.74,2.16,2.3,3.5
		c0.56,1.34,0.84,2.78,0.84,4.31s-0.28,2.96-0.84,4.31c-0.56,1.34-1.33,2.51-2.3,3.52c-0.97,1.01-2.12,1.8-3.42,2.37
		C343.85,247.93,342.43,248.22,340.92,248.22 M340.92,244.48c1.01,0,1.94-0.2,2.77-0.6c0.83-0.4,1.53-0.94,2.12-1.62
		c0.58-0.68,1.03-1.47,1.34-2.37c0.31-0.9,0.47-1.84,0.47-2.83c0-1-0.16-1.95-0.47-2.84c-0.31-0.89-0.76-1.67-1.34-2.34
		c-0.58-0.67-1.29-1.2-2.12-1.59c-0.83-0.39-1.75-0.58-2.77-0.58c-1.04,0-1.97,0.19-2.78,0.58c-0.82,0.39-1.52,0.92-2.1,1.59
		c-0.58,0.67-1.03,1.45-1.34,2.34c-0.31,0.89-0.47,1.84-0.47,2.84c0,0.98,0.16,1.93,0.47,2.83c0.31,0.9,0.76,1.69,1.34,2.37
		c0.58,0.68,1.28,1.22,2.1,1.62C338.96,244.28,339.88,244.48,340.92,244.48"></path>
    <polygon class="fill-current" points="352.93,226.7 357.22,226.7 360.61,242.38 364.63,227.29 368.17,227.29 372.22,242.38 375.58,226.7
		379.68,226.7 374.24,247.65 370.13,247.65 366.27,233.8 362.35,247.65 358.31,247.65 	"></polygon>
    <polygon class="fill-current" points="382.17,226.7 395.61,226.7 395.61,230.18 386.09,230.18 386.09,235.12 393.09,235.12 393.09,238.64
		386.09,238.64 386.09,244.1 396.32,244.1 396.32,247.65 382.17,247.65 	"></polygon>
    <path class="fill-current" d="M399.84,226.7h6.88c1.31,0,2.41,0.2,3.33,0.6c0.91,0.4,1.65,0.91,2.21,1.52s0.97,1.29,1.23,2.03
		c0.26,0.73,0.39,1.44,0.39,2.11c0,1.32-0.29,2.49-0.85,3.5c-0.57,1.02-1.45,1.83-2.63,2.44l4.79,8.77h-4.42l-4.2-8.26h-2.96v8.26
		h-3.76V226.7z M406.74,236.12c0.99,0,1.77-0.29,2.32-0.88c0.55-0.59,0.83-1.3,0.83-2.14c0-0.9-0.29-1.64-0.87-2.2
		c-0.58-0.56-1.34-0.85-2.27-0.85h-3.14v6.06H406.74z"></path>
    <polygon class="fill-current" points="418.07,226.7 431.51,226.7 431.51,230.18 421.99,230.18 421.99,235.12 428.99,235.12 428.99,238.64
		421.99,238.64 421.99,244.1 432.22,244.1 432.22,247.65 418.07,247.65 	"></polygon>
    <path class="fill-current" d="M435.74,226.7h7.75c1.62,0,3.1,0.21,4.45,0.63c1.35,0.42,2.51,1.06,3.48,1.92c0.98,0.86,1.73,1.96,2.27,3.3
		c0.54,1.34,0.81,2.92,0.81,4.75c0,1.74-0.27,3.25-0.83,4.54c-0.55,1.29-1.32,2.37-2.3,3.24c-0.98,0.87-2.15,1.52-3.5,1.95
		c-1.35,0.43-2.82,0.64-4.42,0.64h-7.72V226.7z M443.11,244.14c2.36,0,4.17-0.58,5.41-1.73c1.24-1.15,1.87-2.84,1.87-5.06
		c0-2.2-0.58-3.94-1.73-5.22c-1.15-1.28-3-1.92-5.55-1.92h-3.45v13.92H443.11z"></path>
    <path class="fill-current" d="M462.03,228.62h2.6v5.11c0.18-0.18,0.51-0.38,1.01-0.6c0.5-0.22,1.1-0.33,1.8-0.33c0.75,0,1.41,0.14,1.99,0.42
		c0.58,0.28,1.07,0.66,1.49,1.13c0.41,0.47,0.72,1.04,0.94,1.69c0.21,0.65,0.32,1.34,0.32,2.07c0,0.79-0.14,1.52-0.41,2.21
		c-0.27,0.69-0.66,1.29-1.17,1.8c-0.51,0.51-1.12,0.92-1.84,1.22c-0.72,0.3-1.53,0.46-2.42,0.46c-0.9,0-1.72-0.07-2.48-0.22
		c-0.76-0.15-1.37-0.3-1.84-0.47V228.62z M464.62,241.32c0.21,0.07,0.42,0.13,0.64,0.17c0.22,0.04,0.57,0.06,1.03,0.06
		c0.53,0,0.99-0.09,1.39-0.28c0.4-0.19,0.73-0.43,1.01-0.75c0.28-0.31,0.49-0.67,0.63-1.08s0.21-0.83,0.21-1.26
		c0-0.4-0.05-0.79-0.14-1.16c-0.1-0.37-0.25-0.7-0.45-0.99c-0.21-0.29-0.47-0.52-0.78-0.69c-0.32-0.17-0.69-0.26-1.13-0.26
		c-0.79,0-1.39,0.2-1.8,0.61c-0.4,0.41-0.6,0.97-0.6,1.68V241.32z"></path>
    <path class="fill-current" d="M473.29,245.52c0.15,0.12,0.31,0.23,0.49,0.34c0.17,0.11,0.4,0.17,0.66,0.17c0.35,0,0.64-0.15,0.87-0.44
		c0.23-0.3,0.47-0.76,0.72-1.38l0.33-0.84l-4.65-10.34h2.99l2.95,7.14l2.6-7.14h2.84l-4.32,10.43c-0.21,0.52-0.41,1.05-0.62,1.6
		c-0.21,0.55-0.46,1.06-0.76,1.52c-0.3,0.47-0.67,0.85-1.11,1.14c-0.44,0.3-1,0.44-1.67,0.44c-0.59,0-1.08-0.07-1.46-0.21
		c-0.39-0.14-0.73-0.34-1.02-0.59L473.29,245.52z"></path>
    <path class="fill-current" d="M499.39,248.17c-1.51,0-2.92-0.29-4.22-0.86c-1.3-0.57-2.44-1.36-3.41-2.37c-0.97-1-1.74-2.17-2.3-3.51
		c-0.56-1.34-0.84-2.77-0.84-4.29c0-1.52,0.28-2.96,0.84-4.29c0.56-1.34,1.32-2.5,2.28-3.49c0.96-0.99,2.1-1.78,3.41-2.35
		c1.31-0.57,2.73-0.86,4.24-0.86c1.51,0,2.92,0.29,4.22,0.86c1.3,0.58,2.44,1.36,3.41,2.35c0.97,0.99,1.74,2.16,2.3,3.49
		c0.56,1.34,0.84,2.77,0.84,4.29c0,1.52-0.28,2.96-0.84,4.29c-0.56,1.34-1.33,2.51-2.3,3.51c-0.97,1-2.11,1.79-3.41,2.37
		C502.3,247.88,500.9,248.17,499.39,248.17 M499.39,244.44c1.01,0,1.93-0.2,2.76-0.6c0.83-0.4,1.53-0.93,2.11-1.61
		c0.58-0.68,1.02-1.47,1.33-2.37c0.31-0.9,0.47-1.84,0.47-2.82c0-1-0.16-1.95-0.47-2.84c-0.31-0.89-0.76-1.67-1.33-2.33
		c-0.58-0.67-1.28-1.19-2.11-1.58c-0.83-0.39-1.75-0.58-2.76-0.58c-1.03,0-1.96,0.19-2.78,0.58c-0.82,0.39-1.52,0.91-2.1,1.58
		c-0.58,0.67-1.02,1.45-1.33,2.33c-0.31,0.89-0.47,1.83-0.47,2.84c0,0.98,0.16,1.92,0.47,2.82c0.31,0.9,0.76,1.69,1.33,2.37
		c0.58,0.68,1.28,1.22,2.1,1.61C497.43,244.24,498.35,244.44,499.39,244.44"></path>
    <path class="fill-current" d="M515.03,241.71c0.25,0.29,0.54,0.6,0.88,0.93c0.34,0.32,0.72,0.63,1.15,0.91c0.42,0.28,0.9,0.52,1.43,0.7
		c0.53,0.19,1.12,0.28,1.78,0.28c1.22,0,2.12-0.28,2.71-0.85c0.59-0.56,0.88-1.24,0.88-2.04c0-0.44-0.08-0.83-0.25-1.18
		c-0.17-0.34-0.44-0.65-0.84-0.91c-0.39-0.26-0.9-0.5-1.54-0.7c-0.63-0.21-1.41-0.41-2.34-0.6c-0.95-0.19-1.77-0.48-2.47-0.88
		c-0.69-0.4-1.27-0.87-1.72-1.41c-0.45-0.54-0.8-1.14-1.02-1.8c-0.23-0.66-0.34-1.33-0.34-2.02c0-0.79,0.14-1.55,0.43-2.27
		c0.29-0.72,0.73-1.36,1.33-1.91c0.6-0.55,1.35-1,2.25-1.33c0.9-0.33,1.96-0.5,3.18-0.5c1.1,0,2.04,0.13,2.82,0.38
		c0.79,0.25,1.44,0.54,1.97,0.88c0.53,0.33,0.94,0.66,1.23,0.99c0.29,0.32,0.5,0.56,0.62,0.7l-2.58,2.45
		c-0.1-0.08-0.27-0.24-0.5-0.45c-0.23-0.22-0.51-0.43-0.85-0.64c-0.34-0.21-0.75-0.4-1.23-0.57c-0.48-0.17-1.01-0.25-1.61-0.25
		c-0.54,0-1,0.07-1.4,0.22c-0.39,0.15-0.72,0.33-0.98,0.56c-0.26,0.23-0.45,0.49-0.57,0.77c-0.12,0.28-0.19,0.55-0.19,0.8
		c0,0.38,0.07,0.71,0.2,1c0.14,0.29,0.36,0.56,0.68,0.82c0.32,0.25,0.76,0.48,1.32,0.67c0.56,0.2,1.26,0.38,2.11,0.55
		c0.81,0.17,1.58,0.42,2.33,0.75c0.74,0.34,1.4,0.77,1.97,1.3c0.57,0.53,1.02,1.18,1.36,1.94c0.34,0.76,0.51,1.68,0.51,2.74
		c0,0.92-0.19,1.77-0.56,2.54c-0.37,0.77-0.89,1.45-1.55,2.04c-0.66,0.58-1.45,1.04-2.36,1.36c-0.91,0.32-1.9,0.49-2.98,0.49
		c-1.03,0-1.97-0.13-2.81-0.38c-0.84-0.25-1.59-0.57-2.27-0.96c-0.67-0.39-1.25-0.81-1.74-1.27c-0.49-0.46-0.9-0.9-1.23-1.32
		L515.03,241.71z"></path>
    <polygon class="fill-current" points="536.16,230.18 529.15,230.18 529.15,226.7 547.08,226.7 547.08,230.18 540.07,230.18 540.07,247.61
		536.16,247.61"></polygon>
    <path class="fill-current" d="M558.22,248.17c-1.51,0-2.92-0.29-4.22-0.86c-1.3-0.57-2.44-1.36-3.41-2.37c-0.97-1-1.74-2.17-2.3-3.51
		c-0.56-1.34-0.84-2.77-0.84-4.29c0-1.52,0.28-2.96,0.84-4.29c0.56-1.34,1.32-2.5,2.28-3.49c0.96-0.99,2.1-1.78,3.41-2.35
		c1.31-0.57,2.73-0.86,4.24-0.86c1.51,0,2.92,0.29,4.22,0.86c1.3,0.58,2.44,1.36,3.41,2.35c0.97,0.99,1.74,2.16,2.3,3.49
		c0.56,1.34,0.84,2.77,0.84,4.29c0,1.52-0.28,2.96-0.84,4.29c-0.56,1.34-1.33,2.51-2.3,3.51c-0.97,1-2.11,1.79-3.41,2.37
		C561.14,247.88,559.73,248.17,558.22,248.17 M558.22,244.44c1.01,0,1.94-0.2,2.76-0.6c0.83-0.4,1.53-0.93,2.11-1.61
		c0.58-0.68,1.02-1.47,1.34-2.37c0.31-0.9,0.46-1.84,0.46-2.82c0-1-0.16-1.95-0.46-2.84c-0.31-0.89-0.76-1.67-1.34-2.33
		c-0.58-0.67-1.28-1.19-2.11-1.58c-0.83-0.39-1.75-0.58-2.76-0.58c-1.03,0-1.96,0.19-2.78,0.58c-0.82,0.39-1.52,0.91-2.1,1.58
		c-0.58,0.67-1.02,1.45-1.33,2.33c-0.31,0.89-0.46,1.83-0.46,2.84c0,0.98,0.15,1.92,0.46,2.82c0.31,0.9,0.76,1.69,1.33,2.37
		c0.58,0.68,1.28,1.22,2.1,1.61C556.26,244.24,557.19,244.44,558.22,244.44"></path>
    <polygon class="fill-current" points="572.52,226.7 576.47,226.7 586.49,241.56 586.49,226.7 590.31,226.7 590.31,247.61 586.46,247.61
		576.34,232.56 576.34,247.61 572.52,247.61 	"></polygon>
</g>
</svg>